# xmcd CD database file
# Copyright (C) 1996 Ti Kan
#
# Track frame offsets:
#  182
#  11207
#  23025
#  36392
#  49900
#  62340
#  73600
#  88195
#  99975
#  109312
#  122970
#  135660
#  146517
#  156452
#
# Disc length: 2271 seconds
#
# Revision: 1
# Processed by: cddbd v1.4b41PL1 Copyright (c) Steve Scherf et al.
# Submitted via: CDWizzard Release:4.12
#
DISCID=c908dd0e
DTITLE=Parker, Junior, James Cotton and Pat Hare - Mystery Train
DYEAR=1900
DGENRE=
TTITLE0=Mystery Train
TTITLE1=Love My Baby
TTITLE2=Feelin' Good
TTITLE3=Fussin' And Fightin'
TTITLE4=Feelin' Bad
TTITLE5=Love My Baby (Alt.)
TTITLE6=Sittin' Drinkin' And Thinkin'
TTITLE7=Sittin' At The Bar
TTITLE8=Sittin' At My Window
TTITLE9=Cotton Crop Blues (James Cotton)
TTITLE10=Hold Me In Your Arms  (James Cotton)
TTITLE11=My Baby (James Cotton)
TTITLE12=Bonus Pay (Pat Hare)
TTITLE13=I'm Gonna Murder My Baby (Pat Hare)
EXTD=Rounder CD 22 38\n\nOriginal sessions produced by Sam C. Phillips\n\n
EXTD=Submitted 6/16/97\n[Jmccoy@efn.org]
EXTT0=
EXTT1=
EXTT2=
EXTT3=
EXTT4=
EXTT5=
EXTT6=
EXTT7=
EXTT8=
EXTT9=
EXTT10=
EXTT11=
EXTT12=
EXTT13=
PLAYORDER=
